<svg id="グループ_2228" data-name="グループ 2228" xmlns="http://www.w3.org/2000/svg" width="144.993" height="46.513" viewBox="0 0 144.993 46.513">
  <g id="グループ_2224" data-name="グループ 2224">
    <path id="パス_1214" data-name="パス 1214" d="M18.182,50.47a18.18,18.18,0,1,1,0-36.36v5.427A12.755,12.755,0,1,0,27.2,41.31a12.522,12.522,0,0,0,3.647-9.018l4.524,2.714c0,4.644-.71,6.524-4.331,10.145a18.038,18.038,0,0,1-12.858,5.324" transform="translate(0 -8.042)" fill="#fe0000"/>
    <path id="パス_1215" data-name="パス 1215" d="M48.224,6.395,32.76,0l3.492,18.088L48.224,6.395Z" transform="translate(-18.672)" fill="#fe0000"/>
    <path id="パス_1216" data-name="パス 1216" d="M63.06,72.15V67.686c.864-.009,8.549-.292,9.065-7.982.546-8.119-7.4-10.312-7.736-10.4L65.5,44.98c4.09,1.079,11.658,5.608,11.022,15.026-.645,9.6-9.091,12.14-13.465,12.14" transform="translate(-35.942 -25.637)" fill="#fe0000"/>
    <path id="パス_1217" data-name="パス 1217" d="M53.684,40.41l5.07,10.14L64.814,38.26,53.68,40.41Z" transform="translate(-30.595 -21.807)" fill="#fe0000"/>
  </g>
  <rect id="長方形_2447" data-name="長方形 2447" width="1.29" height="19.782" transform="translate(61.926 20.281)"/>
  <rect id="長方形_2448" data-name="長方形 2448" width="1.29" height="13.331" transform="translate(108.581 26.516)"/>
  <rect id="長方形_2449" data-name="長方形 2449" width="1.29" height="13.546" transform="translate(76.978 26.516)"/>
  <g id="楕円形_1" data-name="楕円形 1" transform="translate(64.506 26.516)">
    <circle id="楕円形_27" data-name="楕円形 27" cx="6.666" cy="6.666" r="6.666" fill="none"/>
    <path id="パス_3496" data-name="パス 3496" d="M156.666,74.991a6.666,6.666,0,1,1,6.666-6.666A6.671,6.671,0,0,1,156.666,74.991Zm0-12.041a5.376,5.376,0,1,0,5.376,5.376A5.383,5.383,0,0,0,156.666,62.95Z" transform="translate(-150 -61.66)"/>
  </g>
  <g id="楕円形_3" data-name="楕円形 3" transform="translate(126.002 26.086)">
    <circle id="楕円形_28" data-name="楕円形 28" cx="6.666" cy="6.666" r="6.666" fill="none"/>
    <path id="パス_3497" data-name="パス 3497" d="M299.666,73.991a6.666,6.666,0,1,1,6.666-6.666A6.671,6.671,0,0,1,299.666,73.991Zm0-12.041a5.376,5.376,0,1,0,5.376,5.376A5.383,5.383,0,0,0,299.666,61.95Z" transform="translate(-293 -60.66)"/>
  </g>
  <g id="楕円形_2" data-name="楕円形 2" transform="translate(107.081 20.926)">
    <circle id="楕円形_29" data-name="楕円形 29" cx="1.935" cy="1.935" r="1.935" fill="none"/>
    <path id="パス_3498" data-name="パス 3498" d="M250.935,52.53A1.935,1.935,0,1,1,252.87,50.6,1.938,1.938,0,0,1,250.935,52.53Zm0-3.01A1.075,1.075,0,1,0,252.01,50.6,1.076,1.076,0,0,0,250.935,49.52Z" transform="translate(-249 -48.66)"/>
  </g>
  <g id="グループ_2226" data-name="グループ 2226" transform="translate(46.875 26.516)">
    <rect id="長方形_2450" data-name="長方形 2450" width="1.29" height="19.782" transform="translate(0 0.215)"/>
    <g id="楕円形_1-2" data-name="楕円形 1-2" transform="translate(0.43)">
      <circle id="楕円形_30" data-name="楕円形 30" cx="6.666" cy="6.666" r="6.666" fill="none"/>
      <path id="パス_3499" data-name="パス 3499" d="M116.666,74.991a6.666,6.666,0,1,1,6.666-6.666A6.671,6.671,0,0,1,116.666,74.991Zm0-12.041a5.376,5.376,0,1,0,5.376,5.376A5.383,5.383,0,0,0,116.666,62.95Z" transform="translate(-110 -61.66)"/>
    </g>
  </g>
  <path id="パス_3500" data-name="パス 3500" d="M198.081,74.552h-1.29V67.366c0-2.92-2.959-5.186-5.5-5.186a5.556,5.556,0,0,0-5.186,5.186v7.186h-1.29V67.366a6.733,6.733,0,0,1,6.476-6.476c3.208,0,6.795,2.769,6.795,6.476Z" transform="translate(-105.334 -34.705)"/>
  <path id="パス_3501" data-name="パス 3501" d="M231.761,74.552h-1.29V67.366c0-2.92-2.959-5.186-5.5-5.186a5.556,5.556,0,0,0-5.186,5.186v7.186h-1.29V67.366a6.733,6.733,0,0,1,6.476-6.476c3.208,0,6.795,2.769,6.795,6.476Z" transform="translate(-124.53 -34.705)"/>
  <path id="パス_3502" data-name="パス 3502" d="M271.891,74.552H270.6V67.366c0-2.92-2.959-5.186-5.5-5.186a5.556,5.556,0,0,0-5.186,5.186v7.186h-1.29V67.366A6.733,6.733,0,0,1,265.1,60.89c3.208,0,6.795,2.769,6.795,6.476Z" transform="translate(-147.402 -34.705)"/>
  <path id="パス_3503" data-name="パス 3503" d="M299.462,81.024c-3.582,0-6.722-2.886-6.722-6.171V73.4h1.29v1.449c0,2.6,2.537,4.881,5.431,4.881,2.679,0,5.625-2.554,5.625-4.881l.052-14.092h1.29l-.052,14.1c0,3-3.556,6.171-6.915,6.171Z" transform="translate(-166.849 -34.631)"/>
  <path id="パス_1222" data-name="パス 1222" d="M119.3,23.062a12.729,12.729,0,0,0-2.7-.955l-.254.705a18.67,18.67,0,0,1,2.688,1l.262-.744Zm-1,2.507a16.8,16.8,0,0,0-2.666-.985l-.3.735a25.458,25.458,0,0,1,2.666,1l.3-.744ZM116.213,30.2c4.154-.3,6.3-1.974,7.156-5.586l-.722-.434a6.624,6.624,0,0,1-1.9,3.6c-1.075.989-2.451,1.449-4.761,1.621l.232.8Zm6.18-6.782a7.545,7.545,0,0,0-.886-1.6l-.6.232a8.62,8.62,0,0,1,.886,1.608Zm1.29-.383a6.644,6.644,0,0,0-.886-1.57l-.585.211a8.216,8.216,0,0,1,.877,1.608Zm1.058,2.585v.774h8.48v-.774Zm13.916-.331a.905.905,0,1,0,.894.907A.921.921,0,0,0,138.657,25.285ZM144.282,23v.735h6.451c-.06,3.561-1.591,5.333-5.152,5.978l.413.714c3.823-.847,5.393-2.675,5.582-6.55L150.651,23h-6.369ZM152.1,21.26a1.168,1.168,0,1,0,1.17,1.17,1.194,1.194,0,0,0-1.17-1.17Zm0,.512a.665.665,0,0,1,.654.654.652.652,0,0,1-.649.654h0a.653.653,0,0,1-.654-.654h0a.665.665,0,0,1,.654-.654Zm2.576.5v.714h6.218v-.714Zm-.705,2.387v.714h6.885c-.323,2.658-1.8,3.943-4.993,4.339l.361.722c3.776-.585,5.251-2.1,5.6-5.775h-7.861Zm13.284-1.135a13.789,13.789,0,0,0-3.01-1.015l-.262.765a17.16,17.16,0,0,1,2.989,1.028l.284-.774Zm-2.989,6.67c4.49-.434,6.489-2.081,7.324-6.038l-.684-.495a6.868,6.868,0,0,1-2.193,4.206c-1,.864-2.365,1.3-4.649,1.488l.2.834Zm9.65-7.053V23.9h6.58v-.757ZM172.94,28.8v.753h8.532v-.757H172.94Zm13.6-5.277a13.789,13.789,0,0,0-3.01-1.015l-.262.765a17.162,17.162,0,0,1,2.989,1.028l.284-.774Zm-2.989,6.67c4.49-.434,6.489-2.081,7.328-6.038l-.684-.495A6.868,6.868,0,0,1,188,27.866c-1,.864-2.365,1.3-4.649,1.488l.2.834Zm15.477-7.053h-3.281a7.48,7.48,0,0,0,.452-1.067l-.765-.219a7.228,7.228,0,0,1-2.989,3.832l.572.572a8.055,8.055,0,0,0,2.305-2.4h3.522a7,7,0,0,1-5.513,5.879l.464.705c3.5-1.075,5.212-3.028,5.879-6.683l-.645-.624Zm1.148-.039a6.809,6.809,0,0,0-.834-1.548l-.624.189a7.7,7.7,0,0,1,.826,1.57Zm1.29-.292a7.11,7.11,0,0,0-.834-1.578l-.615.189a7.9,7.9,0,0,1,.826,1.608l.624-.219Z" transform="translate(-65.739 -12.1)"/>
  <path id="パス_1223" data-name="パス 1223" d="M100.456,23.45,92.84,27.105l7.616,3.655V30l-6.128-2.894,6.128-2.894Z" transform="translate(-52.915 -13.366)"/>
  <path id="パス_1224" data-name="パス 1224" d="M319.45,23.45l7.616,3.655-7.616,3.655V30l6.128-2.894-6.128-2.894Z" transform="translate(-182.073 -13.366)"/>
</svg>
